<svg width="35" height="33" viewBox="0 0 35 33" fill="none" xmlns="http://www.w3.org/2000/svg">
<path d="M33.2352 7.20022C32.7076 5.92316 31.9469 4.7659 30.9957 3.79322C30.0437 2.81764 28.9213 2.04236 27.6896 1.50954C26.4123 0.95485 25.0424 0.670926 23.6593 0.674254C21.7189 0.674254 19.8258 1.22974 18.1806 2.279C17.787 2.53 17.4131 2.80569 17.0589 3.10606C16.7047 2.80569 16.3308 2.53 15.9372 2.279C14.292 1.22974 12.3989 0.674254 10.4585 0.674254C9.0613 0.674254 7.70737 0.954056 6.42823 1.50954C5.19238 2.04446 4.07854 2.81391 3.12213 3.79322C2.16965 4.7648 1.40878 5.92233 0.882646 7.20022C0.335566 8.52928 0.0561218 9.94063 0.0561218 11.3931C0.0561218 12.7633 0.323758 14.1911 0.855095 15.6436C1.29984 16.8575 1.93745 18.1166 2.75217 19.3881C4.04312 21.4002 5.81818 23.4987 8.02224 25.626C11.6747 29.1523 15.2917 31.5882 15.4452 31.687L16.378 32.3124C16.7913 32.5881 17.3226 32.5881 17.7359 32.3124L18.6687 31.687C18.8222 31.5841 22.4352 29.1523 26.0916 25.626C28.2957 23.4987 30.0708 21.4002 31.3617 19.3881C32.1764 18.1166 32.818 16.8575 33.2588 15.6436C33.7901 14.1911 34.0578 12.7633 34.0578 11.3931C34.0617 9.94063 33.7822 8.52928 33.2352 7.20022Z" fill="white"/>
</svg>
