<svg width="34" height="33" viewBox="0 0 34 33" fill="none" xmlns="http://www.w3.org/2000/svg">
<path d="M29.9513 4.12602L29.9506 4.12529C29.1 3.23451 28.1002 2.52989 27.0072 2.0468L27.006 2.04625C25.8724 1.54322 24.6589 1.28668 23.4354 1.28969L23.4332 1.28969C21.7145 1.28969 20.0351 1.79206 18.5715 2.74587L18.5715 2.74588C18.2211 2.97418 17.8885 3.22477 17.5734 3.49778L16.9736 4.01751L16.3738 3.49779C16.0587 3.22477 15.7261 2.97418 15.3758 2.74588L15.3757 2.74587C13.9121 1.79206 12.2327 1.28969 10.5141 1.28969C9.27428 1.28969 8.07583 1.54281 6.94126 2.04626L6.94024 2.04671C5.84319 2.5319 4.85157 3.23079 3.99635 4.12557L3.99515 4.12683C3.14581 5.01209 2.46434 6.06997 1.99208 7.24202C1.50083 8.46147 1.24956 9.75654 1.24956 11.0926C1.24956 12.3455 1.48905 13.6688 1.97773 15.0339L29.9513 4.12602ZM29.9513 4.12602C30.8 5.01278 31.4817 6.07097 31.9555 7.24281C32.4465 8.46204 32.6974 9.75604 32.6938 11.0902V11.0926C32.6938 12.3456 32.4543 13.6691 31.9655 15.0344L31.9648 15.0364M29.9513 4.12602L31.9648 15.0364M8.77294 24.6733L8.77303 24.6734C10.5294 26.406 12.2805 27.8738 13.6124 28.9213C14.2777 29.4445 14.8368 29.8615 15.2373 30.1529C15.4376 30.2985 15.598 30.4126 15.712 30.4926C15.769 30.5326 15.8142 30.564 15.8466 30.5863L15.885 30.6126C15.8923 30.6176 15.8962 30.6202 15.8974 30.6209C15.8978 30.6212 15.8979 30.6213 15.8975 30.621L15.9048 30.6259L15.9121 30.6308L16.8232 31.255C16.8233 31.2551 16.8234 31.2552 16.8236 31.2553C16.9166 31.3185 17.0268 31.3185 17.1198 31.2553C17.12 31.2552 17.1201 31.2551 17.1202 31.255L18.0313 30.6308L18.0315 30.6307C18.1631 30.5406 21.6483 28.1442 25.1705 24.6733H8.77294ZM8.77294 24.6733C6.65297 22.5825 4.96496 20.5387 3.74812 18.6009M8.77294 24.6733L3.74812 18.6009M31.9648 15.0364C31.5597 16.1761 30.964 17.3751 30.1953 18.6009M31.9648 15.0364L30.1953 18.6009M3.74812 18.6009C2.98048 17.3768 2.38767 16.177 1.97789 15.0344L3.74812 18.6009ZM30.1953 18.6009C28.9785 20.5386 27.2906 22.5824 25.1707 24.673L30.1953 18.6009Z" stroke="white" stroke-width="1.83195"/>
</svg>
