<?xml version="1.0" encoding="UTF-8"?>
<!DOCTYPE svg PUBLIC "-//W3C//DTD SVG 1.1//EN" "http://www.w3.org/Graphics/SVG/1.1/DTD/svg11.dtd">
<!-- Creator: CorelDRAW 2018 (64-Bit) -->
<svg xmlns="http://www.w3.org/2000/svg" xml:space="preserve" width="800px" height="360px" version="1.1" style="shape-rendering:geometricPrecision; text-rendering:geometricPrecision; image-rendering:optimizeQuality; fill-rule:evenodd; clip-rule:evenodd"
viewBox="0 0 800 360"
 xmlns:xlink="http://www.w3.org/1999/xlink">
 <defs>
  <style type="text/css">
    .fil0 {fill: #fffa;fill-rule:nonzero}
  </style>
 </defs>
 <g id="Layer_x0020_1">
  <metadata id="CorelCorpID_0Corel-Layer"/>
  <path class="fil0" d="M115.69 324.99l-91.75 -288 47.32 0 55.54 180.2c1.65,4.39 3.16,9.53 4.53,15.43 1.37,5.9 2.6,11.87 3.7,17.9 1.1,6.03 2.13,11.66 3.08,16.87 0.97,5.21 1.86,9.46 2.68,12.75l-11.93 -0.41c4.11,-14.54 7.34,-25.78 9.67,-33.74 2.33,-7.95 4.18,-14.05 5.55,-18.3 1.37,-4.26 2.61,-7.89 3.7,-10.91l51.84 -130.01 39.91 0 50.2 130.01c2.74,6.58 5.14,13.1 7.2,19.54 2.05,6.45 3.91,12.9 5.55,19.34 1.65,6.45 3.43,13.24 5.35,20.37l-10.7 2.88c1.37,-7.41 2.4,-13.24 3.09,-17.49 0.68,-4.25 1.3,-7.75 1.85,-10.49 0.55,-2.74 1.1,-5.42 1.65,-8.02 0.54,-2.61 1.44,-5.97 2.67,-10.08 1.23,-4.12 2.95,-9.74 5.14,-16.87l54.72 -178.97 47.73 0 -91.75 288 -30.86 0 -76.11 -180.21 3.7 1.65 -73.23 178.56 -30.04 0z"/>
  <path class="fil0" d="M442.4 322.61c-10.01,0 -18.96,-2.37 -26.84,-7.1 -7.89,-4.73 -14.09,-11.24 -18.62,-19.54 -4.52,-8.3 -6.79,-17.8 -6.79,-28.49 0,-10.84 2.33,-20.47 7,-28.91 4.66,-8.43 10.86,-15.05 18.61,-19.85 7.75,-4.8 16.36,-7.2 25.82,-7.2 5.76,0 11.25,0.9 16.46,2.68 5.21,1.78 9.87,4.32 13.99,7.61 4.11,3.29 7.57,7.2 10.38,11.73 2.81,4.52 4.7,9.53 5.66,15.01l-1.23 -0.61 0.41 -35.39 4.11 0 0 108 -4.52 0 0 -35.38 1.85 -0.62c-1.24,5.49 -3.26,10.56 -6.07,15.22 -2.81,4.67 -6.27,8.71 -10.39,12.14 -4.11,3.43 -8.67,6.07 -13.68,7.92 -5,1.85 -10.39,2.78 -16.15,2.78zm0 -4.53c8.37,0 15.95,-2.16 22.73,-6.48 6.79,-4.32 12.14,-10.32 16.05,-18 3.91,-7.68 5.86,-16.52 5.86,-26.53 0,-9.88 -1.95,-18.66 -5.86,-26.33 -3.91,-7.68 -9.26,-13.72 -16.05,-18.11 -6.78,-4.39 -14.5,-6.58 -23.14,-6.58 -9.19,0 -17.35,2.19 -24.48,6.58 -7.13,4.39 -12.68,10.46 -16.66,18.21 -3.98,7.75 -5.97,16.63 -5.97,26.64 0,9.73 1.99,18.41 5.97,26.02 3.98,7.61 9.53,13.61 16.66,18 7.13,4.39 15.43,6.58 24.89,6.58z"/>
  <polygon id="1" class="fil0" points="544.02,320.55 500.62,212.55 505.76,212.55 546.9,315.61 544.23,315.61 585.37,212.55 590.51,212.55 547.11,320.55 "/>
  <path id="2" class="fil0" d="M645.85 322.61c-10.42,0 -19.61,-2.4 -27.57,-7.2 -7.95,-4.8 -14.15,-11.45 -18.61,-19.96 -4.46,-8.5 -6.69,-18.17 -6.69,-29 0,-8.09 1.24,-15.5 3.71,-22.22 2.46,-6.72 5.93,-12.51 10.38,-17.38 4.46,-4.87 9.77,-8.64 15.95,-11.31 6.17,-2.68 12.96,-4.02 20.36,-4.02 6.86,0 13.17,1.14 18.93,3.4 5.76,2.26 10.73,5.55 14.91,9.87 4.18,4.32 7.37,9.5 9.57,15.53 2.19,6.04 3.15,12.83 2.88,20.37l-0.21 5.35 -94.01 0 0 -4.53 91.75 0 -2.47 3.5 0.41 -5.14c0,-8.78 -1.85,-16.46 -5.55,-23.04 -3.71,-6.59 -8.68,-11.69 -14.92,-15.33 -6.24,-3.63 -13.13,-5.45 -20.67,-5.45 -9.33,0 -17.45,2.16 -24.38,6.48 -6.92,4.32 -12.31,10.28 -16.15,17.9 -3.84,7.61 -5.82,16.28 -5.96,26.02 0.14,10.01 2.26,18.92 6.38,26.74 4.11,7.82 9.77,13.92 16.97,18.31 7.2,4.39 15.53,6.58 24.99,6.58 7.13,0 13.71,-1.3 19.75,-3.91 6.03,-2.6 11.45,-6.17 16.25,-10.69l2.47 3.7c-3.43,3.15 -7.1,5.86 -11.01,8.13 -3.91,2.26 -8.16,4.04 -12.75,5.34 -4.6,1.31 -9.5,1.96 -14.71,1.96z"/>
  <path class="fil0" d="M614.98 187.16c-10.83,0 -20.4,-2.4 -28.69,-7.2 -8.3,-4.8 -14.78,-11.45 -19.44,-19.96 -4.67,-8.5 -7,-18.17 -7,-29 0,-10.7 2.33,-20.2 7,-28.49 4.66,-8.3 11.14,-14.78 19.44,-19.44 8.29,-4.66 17.86,-7 28.69,-7 10.84,0 20.4,2.34 28.7,7 8.3,4.66 14.74,11.14 19.34,19.44 4.59,8.29 6.89,17.79 6.89,28.49 0,10.83 -2.3,20.5 -6.89,29 -4.6,8.51 -11.04,15.16 -19.34,19.96 -8.3,4.8 -17.86,7.2 -28.7,7.2zm0 -4.53c9.74,0 18.38,-2.19 25.92,-6.58 7.55,-4.39 13.51,-10.49 17.9,-18.31 4.39,-7.82 6.58,-16.73 6.58,-26.74 0,-9.74 -2.19,-18.38 -6.58,-25.92 -4.39,-7.54 -10.35,-13.51 -17.9,-17.9 -7.54,-4.39 -16.18,-6.58 -25.92,-6.58 -9.73,0 -18.41,2.19 -26.02,6.58 -7.61,4.39 -13.61,10.36 -18,17.9 -4.39,7.54 -6.58,16.18 -6.58,25.92 0,10.01 2.19,18.92 6.58,26.74 4.39,7.82 10.39,13.92 18,18.31 7.61,4.39 16.29,6.58 26.02,6.58z"/>
  <path id="1" class="fil0" d="M763.51 185.1l-42.17 -52.46 -0.62 -1.02 -42.17 -54.52 6.17 0 38.47 50.2 1.44 1.64 45.05 56.16 -6.17 0zm-87.43 0l44.84 -55.95 3.3 3.08 -41.97 52.87 -6.17 0zm48.75 -53.69l-2.47 -4.11 38.47 -50.2 6.17 0 -42.17 54.31z"/>
  <path class="fil0" d="M436.01 180.98l0 -143.99 56.78 0c7.54,0 14.26,1.54 20.16,4.63 5.89,3.08 10.52,7.37 13.88,12.85 3.36,5.49 5.04,11.73 5.04,18.72 0,7.96 -2.36,14.92 -7.1,20.88 -4.73,5.97 -11,10.12 -18.82,12.45l-0.62 -3.91c6.86,1.23 12.83,3.56 17.9,6.99 5.08,3.43 9.05,7.61 11.93,12.55 2.88,4.94 4.32,10.42 4.32,16.46 0,6.17 -1.09,11.83 -3.29,16.97 -2.19,5.14 -5.28,9.63 -9.26,13.47 -3.97,3.84 -8.67,6.79 -14.09,8.85 -5.41,2.06 -11.41,3.08 -18,3.08l-58.83 0zm10.29 -10.28l47.31 0c6.72,0 12.68,-1.3 17.9,-3.91 5.21,-2.61 9.29,-6.21 12.24,-10.8 2.94,-4.59 4.42,-9.84 4.42,-15.74 0,-5.62 -1.54,-10.62 -4.63,-15.01 -3.09,-4.39 -7.3,-7.82 -12.65,-10.29 -5.35,-2.47 -11.45,-3.7 -18.31,-3.7l-46.28 0 0 59.45zm0 -69.74l45.25 0c5.76,0 10.84,-1.16 15.22,-3.49 4.39,-2.34 7.86,-5.52 10.39,-9.57 2.54,-4.05 3.81,-8.61 3.81,-13.68 0,-7.82 -2.64,-14.26 -7.92,-19.34 -5.28,-5.07 -12.58,-7.61 -21.91,-7.61l-44.84 0 0 53.69z"/>
 </g>
</svg>
